<mxfile host="Electron" agent="Mozilla/5.0 (Windows NT 10.0; Win64; x64) AppleWebKit/537.36 (KHTML, like Gecko) draw.io/26.0.9 Chrome/128.0.6613.186 Electron/32.2.5 Safari/537.36" version="26.0.9">
  <diagram name="Page-1" id="temaxnwS8IeKS8GmYeiM">
    <mxGraphModel dx="956" dy="557" grid="1" gridSize="10" guides="1" tooltips="1" connect="1" arrows="1" fold="1" page="1" pageScale="1" pageWidth="850" pageHeight="1100" math="0" shadow="0">
      <root>
        <mxCell id="0" />
        <mxCell id="1" parent="0" />
        <mxCell id="r3VIzuGnsbrAbbpP-iCG-2" value="MiliLab" style="rounded=0;whiteSpace=wrap;html=1;fillColor=none;dashed=1;align=left;verticalAlign=bottom;" vertex="1" parent="1">
          <mxGeometry x="350" y="240" width="160" height="280" as="geometry" />
        </mxCell>
        <mxCell id="WNioL96UmFBMEC2x6ymP-1" value="Vue.js(Render)" style="whiteSpace=wrap;strokeWidth=2;" parent="1" vertex="1">
          <mxGeometry x="633" y="142" width="100" height="30" as="geometry" />
        </mxCell>
        <mxCell id="WNioL96UmFBMEC2x6ymP-2" value="FastAPI(Render)" style="whiteSpace=wrap;strokeWidth=2;" parent="1" vertex="1">
          <mxGeometry x="375" y="142" width="110" height="30" as="geometry" />
        </mxCell>
        <mxCell id="WNioL96UmFBMEC2x6ymP-3" value="Marvin Camera" style="whiteSpace=wrap;strokeWidth=2;" parent="1" vertex="1">
          <mxGeometry x="375.5" y="274" width="110" height="30" as="geometry" />
        </mxCell>
        <mxCell id="WNioL96UmFBMEC2x6ymP-4" value="Web" style="ellipse;aspect=fixed;strokeWidth=2;whiteSpace=wrap;" parent="1" vertex="1">
          <mxGeometry x="658" y="264" width="50" height="50" as="geometry" />
        </mxCell>
        <mxCell id="WNioL96UmFBMEC2x6ymP-5" value="ROS2" style="whiteSpace=wrap;strokeWidth=2;" parent="1" vertex="1">
          <mxGeometry x="400.5" y="340" width="60" height="30" as="geometry" />
        </mxCell>
        <mxCell id="WNioL96UmFBMEC2x6ymP-6" value="Marvin" style="whiteSpace=wrap;strokeWidth=2;" parent="1" vertex="1">
          <mxGeometry x="401" y="467" width="60" height="30" as="geometry" />
        </mxCell>
        <mxCell id="WNioL96UmFBMEC2x6ymP-7" value="Marvin Video" style="curved=1;startArrow=none;endArrow=block;exitX=1;exitY=0.75;entryX=0.005;entryY=0.69;rounded=0;exitDx=0;exitDy=0;entryDx=0;entryDy=0;entryPerimeter=0;" parent="1" source="WNioL96UmFBMEC2x6ymP-2" target="WNioL96UmFBMEC2x6ymP-1" edge="1">
          <mxGeometry x="0.0051" relative="1" as="geometry">
            <Array as="points">
              <mxPoint x="560" y="190" />
            </Array>
            <mxPoint as="offset" />
          </mxGeometry>
        </mxCell>
        <mxCell id="WNioL96UmFBMEC2x6ymP-8" value="" style="curved=1;startArrow=none;endArrow=oval;endSize=10;endFill=1;exitX=0.5;exitY=1;entryX=0.5;entryY=0;rounded=0;entryDx=0;entryDy=0;exitDx=0;exitDy=0;" parent="1" source="WNioL96UmFBMEC2x6ymP-1" target="WNioL96UmFBMEC2x6ymP-4" edge="1">
          <mxGeometry relative="1" as="geometry">
            <Array as="points" />
          </mxGeometry>
        </mxCell>
        <mxCell id="WNioL96UmFBMEC2x6ymP-9" value="User Video" style="curved=1;startArrow=none;endArrow=block;exitX=0;exitY=0.25;rounded=0;exitDx=0;exitDy=0;entryX=1;entryY=0.25;entryDx=0;entryDy=0;" parent="1" source="WNioL96UmFBMEC2x6ymP-1" target="WNioL96UmFBMEC2x6ymP-2" edge="1">
          <mxGeometry x="-0.0126" relative="1" as="geometry">
            <Array as="points">
              <mxPoint x="560" y="130" />
            </Array>
            <mxPoint x="510" y="150" as="targetPoint" />
            <mxPoint as="offset" />
          </mxGeometry>
        </mxCell>
        <mxCell id="WNioL96UmFBMEC2x6ymP-10" value="User Video" style="curved=1;startArrow=none;endArrow=block;exitX=0;exitY=0.5;entryX=0;entryY=0.5;rounded=0;exitDx=0;exitDy=0;entryDx=0;entryDy=0;" parent="1" source="WNioL96UmFBMEC2x6ymP-2" target="WNioL96UmFBMEC2x6ymP-5" edge="1">
          <mxGeometry x="0.19" y="36" relative="1" as="geometry">
            <Array as="points">
              <mxPoint x="270" y="280" />
            </Array>
            <mxPoint as="offset" />
          </mxGeometry>
        </mxCell>
        <mxCell id="WNioL96UmFBMEC2x6ymP-11" value="Path Planning" style="curved=1;startArrow=none;endArrow=block;exitX=0.24;exitY=1;entryX=0.27;entryY=0;rounded=0;" parent="1" source="WNioL96UmFBMEC2x6ymP-5" target="WNioL96UmFBMEC2x6ymP-6" edge="1">
          <mxGeometry x="-0.0062" y="-1" relative="1" as="geometry">
            <Array as="points">
              <mxPoint x="371.5" y="419" />
            </Array>
            <mxPoint y="-1" as="offset" />
          </mxGeometry>
        </mxCell>
        <mxCell id="WNioL96UmFBMEC2x6ymP-12" value="Joint_States" style="curved=1;startArrow=none;endArrow=block;exitX=0.74;exitY=0;entryX=0.76;entryY=1;rounded=0;" parent="1" source="WNioL96UmFBMEC2x6ymP-6" target="WNioL96UmFBMEC2x6ymP-5" edge="1">
          <mxGeometry x="-0.0022" relative="1" as="geometry">
            <Array as="points">
              <mxPoint x="488.5" y="419" />
            </Array>
            <mxPoint as="offset" />
          </mxGeometry>
        </mxCell>
        <mxCell id="WNioL96UmFBMEC2x6ymP-13" value="Marvin Video" style="curved=1;startArrow=none;endArrow=block;exitX=0.5;exitY=0;entryX=0.5;entryY=1;rounded=0;entryDx=0;entryDy=0;exitDx=0;exitDy=0;" parent="1" source="WNioL96UmFBMEC2x6ymP-3" target="WNioL96UmFBMEC2x6ymP-2" edge="1">
          <mxGeometry x="0.0588" relative="1" as="geometry">
            <Array as="points" />
            <mxPoint as="offset" />
          </mxGeometry>
        </mxCell>
        <mxCell id="WNioL96UmFBMEC2x6ymP-14" value="webRTC" style="curved=1;startArrow=none;endArrow=block;exitX=1;exitY=0.5;entryX=0;entryY=0.5;rounded=0;exitDx=0;exitDy=0;entryDx=0;entryDy=0;" parent="1" source="WNioL96UmFBMEC2x6ymP-3" target="WNioL96UmFBMEC2x6ymP-4" edge="1">
          <mxGeometry x="-0.0203" relative="1" as="geometry">
            <mxPoint as="offset" />
          </mxGeometry>
        </mxCell>
        <mxCell id="WNioL96UmFBMEC2x6ymP-15" value="webRTC" style="curved=1;startArrow=none;endArrow=block;exitX=0.49;exitY=1;entryX=1;entryY=0.5;rounded=0;entryDx=0;entryDy=0;" parent="1" source="WNioL96UmFBMEC2x6ymP-4" target="WNioL96UmFBMEC2x6ymP-5" edge="1">
          <mxGeometry x="-0.1816" y="-20" relative="1" as="geometry">
            <Array as="points">
              <mxPoint x="610" y="360" />
            </Array>
            <mxPoint as="offset" />
          </mxGeometry>
        </mxCell>
      </root>
    </mxGraphModel>
  </diagram>
</mxfile>
